<?xml version="1.0" encoding="utf-8"?>
<!-- Generator: Adobe Illustrator 15.1.0, SVG Export Plug-In . SVG Version: 6.00 Build 0)  -->
<!DOCTYPE svg PUBLIC "-//W3C//DTD SVG 1.1//EN" "http://www.w3.org/Graphics/SVG/1.1/DTD/svg11.dtd">
<svg version="1.1" id="Layer_1" xmlns="http://www.w3.org/2000/svg" xmlns:xlink="http://www.w3.org/1999/xlink" x="0px" y="0px"
	 width="100px" height="100px" viewBox="0 0 100 100" enable-background="new 0 0 100 100" xml:space="preserve">
<circle fill="#ED1B2B" cx="50" cy="50" r="50"/>
<g>
	<path fill="#F1F2F2" d="M72.031,27.966c-1.113-1.113-2.9-1.113-4.019,0L50,45.981L31.987,27.966c-1.116-1.113-2.905-1.113-4.021,0
		c-1.113,1.116-1.113,2.905,0,4.021L45.981,50L27.966,68.013c-1.113,1.118-1.113,2.905,0,4.019c0.547,0.547,1.284,0.845,2,0.845
		s1.453-0.273,2-0.845l18.013-18.013l18.015,18.013c0.547,0.547,1.284,0.845,1.997,0.845c0.737,0,1.455-0.273,2.002-0.845
		c1.113-1.113,1.113-2.9,0-4.019L54.019,50l18.013-18.013C73.149,30.872,73.149,29.082,72.031,27.966z"/>
</g>
</svg>
