<?xml version="1.0" encoding="utf-8"?>
<!-- Generator: Adobe Illustrator 15.1.0, SVG Export Plug-In . SVG Version: 6.00 Build 0)  -->
<!DOCTYPE svg PUBLIC "-//W3C//DTD SVG 1.1//EN" "http://www.w3.org/Graphics/SVG/1.1/DTD/svg11.dtd">
<svg version="1.1" id="Layer_1" xmlns="http://www.w3.org/2000/svg" xmlns:xlink="http://www.w3.org/1999/xlink" x="0px" y="0px"
	 width="100px" height="25px" viewBox="0 0 100 25" enable-background="new 0 0 100 25" xml:space="preserve">
<g>
	<path fill="#153B6D" d="M100,20.601C100,23.029,98.02,25,95.576,25H4.422C1.98,25,0,23.029,0,20.601V4.395C0,1.97,1.98,0,4.422,0
		h91.154C98.02,0,100,1.97,100,4.395V20.601z"/>
	<g>
		<path fill="#EBECED" d="M36.723,15.454V9.791h1.107v4.697h2.904v0.966H36.723z"/>
		<path fill="#EBECED" d="M44.391,15.493c-0.401,0-0.768-0.082-1.1-0.243c-0.331-0.163-0.616-0.379-0.854-0.646
			c-0.238-0.271-0.421-0.577-0.549-0.922c-0.128-0.346-0.192-0.699-0.192-1.062c0-0.376,0.068-0.738,0.204-1.083
			c0.137-0.348,0.327-0.652,0.569-0.917c0.244-0.267,0.531-0.478,0.863-0.636c0.331-0.156,0.693-0.234,1.083-0.234
			c0.401,0,0.767,0.083,1.099,0.25c0.331,0.168,0.614,0.388,0.85,0.66c0.236,0.27,0.417,0.58,0.545,0.925
			c0.128,0.345,0.193,0.695,0.193,1.052c0,0.379-0.068,0.738-0.205,1.08c-0.136,0.343-0.325,0.646-0.565,0.91
			c-0.241,0.263-0.526,0.473-0.858,0.63C45.142,15.413,44.781,15.493,44.391,15.493z M42.811,12.621c0,0.245,0.036,0.482,0.108,0.71
			c0.072,0.229,0.177,0.432,0.313,0.606c0.136,0.175,0.304,0.317,0.501,0.424c0.198,0.107,0.422,0.158,0.674,0.158
			c0.256,0,0.482-0.055,0.677-0.164c0.195-0.108,0.36-0.253,0.493-0.434c0.134-0.181,0.235-0.383,0.305-0.61
			c0.069-0.226,0.104-0.457,0.104-0.69c0-0.244-0.038-0.48-0.112-0.709c-0.075-0.229-0.181-0.43-0.317-0.605
			c-0.136-0.175-0.302-0.317-0.498-0.419c-0.195-0.104-0.416-0.155-0.661-0.155c-0.257,0-0.483,0.054-0.678,0.162
			c-0.195,0.109-0.361,0.254-0.497,0.431c-0.137,0.18-0.24,0.381-0.31,0.607C42.845,12.157,42.811,12.387,42.811,12.621z"/>
		<path fill="#EBECED" d="M52.58,14.814c-0.439,0.453-0.944,0.679-1.516,0.679c-0.364,0-0.707-0.08-1.027-0.241
			c-0.321-0.157-0.6-0.373-0.838-0.64c-0.238-0.271-0.425-0.579-0.562-0.93c-0.136-0.352-0.204-0.717-0.204-1.093
			c0-0.388,0.068-0.754,0.204-1.097c0.137-0.343,0.327-0.643,0.569-0.901c0.244-0.258,0.53-0.464,0.859-0.614
			c0.329-0.152,0.686-0.228,1.07-0.228c0.52,0,0.963,0.112,1.332,0.336c0.368,0.222,0.646,0.522,0.834,0.9l-0.826,0.606
			c-0.14-0.281-0.33-0.497-0.574-0.646c-0.242-0.149-0.512-0.225-0.806-0.225c-0.235,0-0.448,0.051-0.638,0.153
			c-0.189,0.099-0.351,0.239-0.485,0.414c-0.134,0.175-0.239,0.378-0.313,0.605c-0.075,0.229-0.112,0.47-0.112,0.726
			c0,0.267,0.04,0.516,0.12,0.747c0.08,0.229,0.193,0.43,0.337,0.601c0.144,0.169,0.314,0.306,0.509,0.404
			c0.195,0.098,0.41,0.146,0.646,0.146c0.524,0,0.997-0.257,1.42-0.772v-0.4h-1.147v-0.803h2.062v2.911H52.58V14.814z"/>
		<path fill="#EBECED" d="M55.25,15.454V9.798h1.107v5.656H55.25z"/>
		<path fill="#EBECED" d="M59.452,11.824v3.63h-1.106V9.791h0.858l2.967,3.717v-3.71h1.108v5.656H62.38L59.452,11.824z"/>
	</g>
</g>
</svg>
